# xmcd
#
# Track frame offsets:
#	150
#	16974
#	33062
#	46969
#	63434
#	79552
#	89621
#	100483
#	121611
#	135179
#	151248
#	167861
#	181508
#	198243
#	214822
#	230493
#	244027
#	255155
#	271209
#	286351
#	299483
#	317523
#
# Disc length: 4422 seconds
#
# Revision: 0
# Processed by: cddbd v1.5.1PL0 Copyright (c) Steve Scherf et al.
# Submitted via: audiograbber 1.81.02
#
DISCID=1d114416
DTITLE=Diverse - Das Beste aus dem Musikantenstadl [CD2)
DYEAR=2004
DGENRE=Country
TTITLE0=Andrè Rieu - Wiener Walzerpotpourri
TTITLE1=Petra Frey and Andreas - Inno D´Amore
TTITLE2=Marianne and Michael - Wann fangt denn endlich d´Musi an
TTITLE3=Die Jungen Tenöre - Heut´ ist der schönste Tag in meinem Leben
TTITLE4=Semino Rossi - Alle Rosen dieser Welt
TTITLE5=Die Mayrhofner - Boarisch Tanzen
TTITLE6=Die Mooskirschner - Unsere Tante Mizzi
TTITLE7=Die Stoakogler - Stoani Power Hits
TTITLE8=Die Großen Drei der Volksmusik - Junge Träume
TTITLE9=Marc Pircher - Sieben Sünden
TTITLE10=Monika Martin - Hast Du heute schon gelächelt
TTITLE11=Nockalm Quintett and Stephanie - Dort auf Wolke sieben
TTITLE12=Rosanna Rocci - Wir tanzen Charleston
TTITLE13=Roger Whittaker - Sag mir wo Du bist
TTITLE14=Stefanie Hertel - Wolkenlos
TTITLE15=Truck Stop - Sitzt, passt, wackelt und hat Luft
TTITLE16=Ursprung Buam - Tirolerbluat Boarischer
TTITLE17=Karel Gott - Jede Nacht
TTITLE18=Judith and Mel - Alles wird gut
TTITLE19=Karl Moik - Ich hab mich so an Dich gewöhnt
TTITLE20=Wolfgang Lindner Band - Udo Jürgens-Medley
TTITLE21=Höhner - Viva Colonia
EXTD=
EXTT0=
EXTT1=
EXTT2=
EXTT3=
EXTT4=
EXTT5=
EXTT6=
EXTT7=
EXTT8=
EXTT9=
EXTT10=
EXTT11=
EXTT12=
EXTT13=
EXTT14=
EXTT15=
EXTT16=
EXTT17=
EXTT18=
EXTT19=
EXTT20=
EXTT21=
PLAYORDER=
